Simulation
nRows=35
nColumns=15
endheader
time  TH_x TH_y TH_z SC_y  SC_z  SC_x  AC_y  AC_z  AC_x  GH_y  GH_z  GH_yy  EL_x  PS_y
8.073123595505619  0.000000  0.000000  0.000000  -23.853486584179095  5.822254196910679  5.211899075112961  58.73783588918766  5.703425751634594  3.4266124299258727  -121.52424382746439  3.3451965647069706  177.15495423597994  16.764183290565622  120.000000
8.113288389513109  0.000000  0.000000  0.000000  -23.58738766863099  5.87920351613705  5.169638788157106  58.69216800477178  5.400300129047855  3.4799326229943666  -114.41038533883524  2.6088014958059347  169.59929666660463  16.277832281042407  120.000000
8.153453183520599  0.000000  0.000000  0.000000  -23.295478964100067  5.9621944043204085  5.1572971366629465  58.65574537382739  5.1475019541762785  3.562955347882119  -100.779815138431  1.7823168330069743  155.33439074151343  15.733672493184036  120.000000
8.19361797752809  0.000000  0.000000  0.000000  -22.98127220391945  6.0817670631014416  5.19647441413697  58.63484079607303  4.968684974384003  3.681545279102197  -62.21120254187616  1.1059699504956801  115.9353058643589  15.151971783484418  120.000000
8.23378277153558  0.000000  0.000000  0.000000  -22.652885441755203  6.249237698981395  5.306805411950329  58.63402098697736  4.883259955360095  3.8411156433578553  -2.3953211188273507  1.4993520416036437  55.093336470960224  14.555771176766648  120.000000
8.273947565543072  0.000000  0.000000  0.000000  -22.322638214344646  6.473652330317636  5.503785673318183  58.65485411331181  4.903441609806345  4.046445441031183  20.488111529511688  2.8172835485914023  30.994630888349285  13.967835490951254  120.000000
8.314112359550561  0.000000  0.000000  0.000000  -22.00519940469214  6.759785139558732  5.796334463185571  58.69845995767453  5.033158304696917  4.302656177992452  28.552548867439782  4.504708292397118  21.538803840126427  13.408486020505272  120.000000
8.354277153558053  0.000000  0.000000  0.000000  -21.71533083940124  7.107189732580926  6.186237139244451  58.76602565514205  5.266725868597605  4.61704359596065  32.064192435218345  6.442877908179438  16.48034060535914  12.89378892490745  120.000000
8.394441947565543  0.000000  0.000000  0.000000  -21.465195106948777  7.509951948171025  6.669678565180775  58.85888623932141  5.589859489818431  4.997373926285952  33.698502878984115  8.59121131492628  13.171746901077743  12.434172445969166  120.000000
8.434606741573035  0.000000  0.000000  0.000000  -21.264139165001215  7.959387142407583  7.2391702358565135  58.97874736374719  5.983058279238586  5.44925478186975  34.39435049678944  10.919852807103004  10.706928127798058  12.03385655209449  120.000000
8.474771535580524  0.000000  0.000000  0.000000  -21.11857929879564  8.44615189726949  7.885396402831896  59.12602252827874  6.424716070302379  5.975995412803421  34.55877312780897  13.398737819626206  8.713747117086557  11.691693091751974  120.000000
8.514936329588014  0.000000  0.000000  0.000000  -21.031867447465114  8.959956000431898  8.598142862254598  59.30014039430464  6.893441871123516  6.577749700258254  34.39940463622113  15.996751597669011  7.018563095641948  11.40278744219456  120.000000
8.555101123595506  0.000000  0.000000  0.000000  -21.004814773773717  9.490460394094908  9.366604652571745  59.50025916283017  7.369655971714612  7.251136510849738  34.0368032211513  18.68302312596163  5.531240559427589  11.160560388431056  120.000000
8.595265917602996  0.000000  0.000000  0.000000  -21.036455936171308  10.028159774945436  10.179988991375915  59.72443484965069  7.836654107934547  7.989581608130258  33.54555081191508  21.42743159595633  4.2022891954359505  10.958413264522129  120.000000
8.635430711610487  0.000000  0.000000  0.000000  -21.125405915792122  10.564481813407758  11.027947510031264  59.969658681907624  8.281357956673784  8.783249289200203  32.97371430717113  24.20138420272452  3.0021538925373403  10.790389108760769  120.000000
8.675595505617977  0.000000  0.000000  0.000000  -21.270388820226337  11.092234970975783  11.90048413409407  60.23156614839397  8.694421506447645  9.619337787453775  32.351748484443334  26.977652763258085  1.912203284616499  10.6515172178522  120.000000
8.715760299625469  0.000000  0.000000  0.000000  -21.470800118056033  11.605681423788687  12.787748116217802  60.50410717446809  9.06974117348686  10.482476922843766  31.698374373201414  29.730283076413418  0.9194671909110675  10.53778337696665  120.000000
8.755925093632959  0.000000  0.000000  0.000000  -21.726034684590708  12.10038657233761  13.680039392916632  60.77987904194497  9.40408610415165  11.355589844731359  31.02542973541152  32.43479893111163  0.01290182943014661  10.446025491517016  120.000000
8.79608988764045  0.000000  0.000000  0.000000  -22.034133875594016  12.572833990011095  14.567770599658058  61.051277601483115  9.696642020503358  12.221307980748007  30.341564324851845  35.0684501997875  -0.8187295033701834  10.373936304578342  120.000000
8.83625468164794  0.000000  0.000000  0.000000  -22.390855888739065  13.02004033739179  15.441425512590977  61.31160222501871  9.948275277693082  13.063426329463962  29.654943466402546  37.61029268027927  -1.587835470668504  10.32018176800107  120.000000
8.87641947565543  0.000000  0.000000  0.000000  -22.789407078554188  13.43931775063305  16.2914700124631  61.555626870319074  10.161260259750533  13.86792766211693  28.97367282092625  40.041246659125754  -2.306918788643053  10.284094668264201  120.000000
8.916584269662922  0.000000  0.000000  0.000000  -23.22129515863043  13.828455416637922  17.108636448916958  61.779408237799515  10.339114250508839  14.623429088250571  28.30546444052931  42.34425925177318  -2.9869981353866137  10.2649966793426  120.000000
8.956749063670411  0.000000  0.000000  0.000000  -23.67730621549223  14.18590277003649  17.884398202269026  61.979919887218536  10.486389574572678  15.321202631402361  27.657702556608633  44.50476240851935  -3.636502429118952  10.261698737351  120.000000
8.996913857677903  0.000000  0.000000  0.000000  -24.14816734740819  14.510447098899162  18.611603464257346  62.15466599497474  10.608473423906528  15.955444256440344  27.037730097399088  46.51119531824254  -4.260515137452682  10.272004685175355  120.000000
9.037078651685393  0.000000  0.000000  0.000000  -24.6252190361497  14.801297008954997  19.285243821284986  62.30130351074228  10.711608518446154  16.523102867616313  26.45289917339756  48.35550539885304  -4.860292724951682  10.29249630954061  120.000000
9.077243445692885  0.000000  0.000000  0.000000  -25.10092278613012  15.058049101155666  19.902797083982968  62.41746619843384  10.802815795045992  17.023459295871316  25.910476768230172  50.033171197862735  -5.433282321652137  10.318650456090662  120.000000
9.117408239700374  0.000000  0.000000  0.000000  -25.568591283460304  15.280195333933879  20.463769975126844  62.500785644745996  10.889150247564716  17.457774094379655  25.41788982659379  51.54252860291106  -5.974056622161563  10.345355389831203  120.000000
9.157573033707866  0.000000  0.000000  0.000000  -26.021881109917405  15.467096080367687  20.968861187660938  62.54932426763608  10.976836955769631  17.82864797736476  24.982970985044275  52.88355466436063  -6.475715886146882  10.367763709477968  120.000000
9.197737827715356  0.000000  0.000000  0.000000  -26.454221233363494  15.618127342812718  21.419065157086106  62.56205506108152  11.070624386396897  18.13917629276574  24.61390373489867  54.05652804072027  -6.931334888509298  10.382106436337738  120.000000
9.237902621722846  0.000000  0.000000  0.000000  -26.858169862103736  15.732745196690265  21.814816632104268  62.53928237708965  11.173305411547684  18.392307780719918  24.31909260000086  55.06074806446377  -7.335346583915788  10.386324485922332  120.000000
9.278067415730337  0.000000  0.000000  0.000000  -27.224950750019552  15.810564102509606  22.15537372504686  62.48293710169652  11.285440225341151  18.590418328334568  24.107045839625236  55.893605883824854  -7.684535510441962  10.380351243846855  120.000000
9.318232209737827  0.000000  0.000000  0.000000  -27.544405526926024  15.851466456950089  22.43858106480131  62.39659140819382  11.405489219986446  18.735003386878205  23.986095574496154  56.55012724025114  -7.978381405935827  10.36582001546417  120.000000
9.358397003745319  0.000000  0.000000  0.000000  -27.805430807158064  15.855705043218027  22.660960681165363  62.285158121401295  11.53023472888278  18.826468240850375  23.963965884629303  57.0230852189748  -8.21870109266926  10.345260576669386  120.000000
9.398561797752809  0.000000  0.000000  0.000000  -27.996771501807178  15.823919044961611  22.81799721096052  62.15434012932416  11.65538641046755  18.864057875448772  24.047293230046602  57.303457234290306  -8.408878979009588  10.321059966169154  120.000000
9.4387265917603  0.000000  0.000000  0.000000  -28.10797979971949  15.757132198996711  22.90443463691536  62.01000006653115  11.776180814646965  18.84585770164185  24.241179038352765  57.38112479498155  -8.55286599397868  10.294472553082214  120.000000
